<svg width="135" height="135" viewBox="0 0 135 135" fill="none" xmlns="http://www.w3.org/2000/svg">
<circle cx="66.5" cy="67.5" r="63.5" fill="#F4F4F4"/>
<g clip-path="url(#clip0_3011_1555)">
<path d="M71.4666 135H62.2546C60.7558 134.817 59.2205 134.635 57.7217 134.415C43.5381 132.368 31.0727 126.592 20.8005 116.576C3.91182 100.199 -2.55853 80.1302 0.914256 56.9905C2.85171 43.9035 8.48128 32.352 17.474 22.6282C33.7047 5.08145 53.8834 -2.30279 77.608 0.621665C90.4756 2.23011 101.844 7.49413 111.641 15.975C123.632 26.3203 131.125 39.2975 133.94 54.9433C134.342 57.2464 134.635 59.6225 135 61.9255V71.6858C134.927 72.0514 134.818 72.4535 134.744 72.8191C134.233 75.9628 133.977 79.1797 133.209 82.287C129.115 99.5047 119.647 113.103 105.134 123.156C96.6169 129.078 87.1856 132.77 76.8769 134.196C75.0491 134.452 73.2579 134.708 71.4301 134.964L71.4666 135ZM67.6649 73.5502C54.5779 86.6371 41.491 99.724 28.3675 112.847C38.3838 121.365 50.0816 126.154 63.461 126.958C63.79 110.947 68.9078 96.8727 78.7047 84.5534C74.9394 80.7882 71.2108 77.0961 67.6649 73.5502ZM106.779 22.2626C97.2384 14.0741 86.2351 9.39502 73.6234 8.15213C73.2213 16.0847 71.6494 23.6517 68.6884 30.8897C65.7274 38.2009 61.5966 44.7443 56.5519 50.4836C60.3172 54.2488 63.9727 57.9044 67.5552 61.4868C80.5324 48.5096 93.6194 35.4226 106.779 22.226V22.2626ZM22.2262 106.67C35.3862 93.5096 48.4731 80.3861 61.5235 67.3723C57.9776 63.8264 54.3221 60.1708 50.5934 56.4787C44.781 61.5965 38.2376 65.7273 30.9995 68.6517C23.725 71.6127 16.1214 73.1846 8.18883 73.5867C9.43172 86.1984 14.1108 97.2017 22.2262 106.67ZM84.3342 78.4486C90.0735 72.8922 96.5438 68.4689 103.818 65.1789C111.056 61.9255 118.66 60.0246 126.556 59.4031C125.752 49.0944 118.733 33.5583 112.701 28.3674C99.6145 41.4543 86.5276 54.5778 73.4772 67.6282C76.9865 71.1375 80.6056 74.7931 84.3342 78.4852V78.4486ZM112.263 106.341C121.84 95.1546 126.739 82.2504 127.068 67.5185C116.101 67.1529 97.1653 75.7435 90.0735 84.1148C97.4212 91.499 104.805 98.8467 112.263 106.304V106.341ZM22.738 28.6964C13.6722 39.261 8.70061 51.5071 8.04261 65.581C22.1896 64.8134 34.4358 59.8784 44.8907 50.8857C37.5065 43.5014 30.1588 36.1538 22.738 28.6964ZM65.6177 7.96935C51.4342 8.70046 39.2246 13.6355 28.8062 22.6282C36.2636 30.0855 43.6112 37.3966 50.9589 44.7809C59.9151 34.326 64.8501 22.0798 65.6177 7.96935ZM71.4301 126.885C84.7729 125.715 96.361 120.853 106.341 112.189C98.9565 104.805 91.6819 97.5307 84.3708 90.2195C76.0727 100.93 71.7591 113.067 71.4301 126.885Z" fill="#048DA9"/>
</g>
<defs>
<clipPath id="clip0_3011_1555">
<rect width="135" height="135" fill="white"/>
</clipPath>
</defs>
</svg>
