<svg width="75" height="75" viewBox="0 0 75 75" fill="none" xmlns="http://www.w3.org/2000/svg">
<circle cx="37.5" cy="37.5" r="37.5" fill="#1E1261"/>
<path d="M33.9086 40.3622C33.132 40.3622 32.4229 40.3622 31.7139 40.3622C31.0892 40.3622 30.4646 40.3622 29.8399 40.3622C29.2659 40.3622 29.0127 40.1434 29.0127 39.6217C28.9958 37.905 28.9958 36.1882 29.0127 34.4547C29.0127 33.9161 29.2828 33.7141 29.8399 33.7141C31.0386 33.7141 32.2372 33.7141 33.419 33.7141C33.5709 33.7141 33.706 33.7141 33.9086 33.7141C33.9086 33.5458 33.9086 33.4112 33.9086 33.2597C33.9086 31.9637 33.8579 30.6678 33.9423 29.3718C34.1112 26.5443 35.2085 24.2385 37.8591 22.8752C39.0746 22.2525 40.3745 22 41.742 22C43.042 22 44.3419 22 45.6419 22C46.4353 22 46.6042 22.1851 46.6042 22.9593C46.6042 24.4236 46.6042 25.9047 46.6042 27.369C46.6042 28.0759 46.3847 28.2778 45.6756 28.2947C44.7133 28.2947 43.7342 28.2947 42.7719 28.3115C42.5017 28.3115 42.2147 28.3452 41.9446 28.3788C41.3537 28.4798 40.8979 28.9006 40.881 29.5065C40.8473 30.8698 40.881 32.233 40.881 33.63C41.0161 33.63 41.168 33.63 41.3031 33.63C42.7212 33.63 44.1393 33.63 45.5575 33.63C46.199 33.63 46.4522 33.8656 46.4522 34.522C46.4522 36.1714 46.4522 37.8376 46.4522 39.4871C46.4522 40.1098 46.2665 40.2949 45.6419 40.2949C44.2069 40.2949 42.7719 40.2949 41.3368 40.2949C41.1849 40.2949 41.0498 40.2949 40.8641 40.2949C40.8641 40.4801 40.8304 40.6484 40.8304 40.8167C40.8304 44.9402 40.8304 49.0469 40.8304 53.1704C40.8304 54.3822 40.7122 54.5 39.4798 54.5C37.9604 54.5 36.4241 54.5 34.9046 54.5C34.128 54.5 33.9255 54.298 33.9255 53.507C33.9255 49.2993 33.9255 45.0917 33.9255 40.884C33.9255 40.7325 33.9255 40.5642 33.9255 40.3454L33.9086 40.3622Z" fill="#EEFBFD"/>
</svg>
