<svg width="75" height="75" viewBox="0 0 75 75" fill="none" xmlns="http://www.w3.org/2000/svg">
<circle cx="37.5" cy="37.5" r="37.5" fill="#1E1261"/>
<path d="M52.5153 29.6331V45.8742C52.5011 45.9454 52.4726 46.0166 52.4583 46.0877C52.2732 46.7425 52.1877 47.44 51.9029 48.0378C50.5357 50.9273 48.2286 52.4646 45.0099 52.4931C40.1963 52.5215 35.3684 52.4931 30.5547 52.4931C29.3157 52.4931 28.1336 52.2653 27.037 51.6675C24.5732 50.3153 23.0921 48.2371 23.0493 45.4187C22.9639 40.3087 23.0066 35.1986 23.0493 30.0744C23.0493 29.4196 23.1775 28.7363 23.4054 28.11C24.3168 25.491 26.1398 23.8398 28.8599 23.1708C29.1305 23.0996 29.4011 23.0569 29.6717 23C35.0835 23 40.4954 23 45.9214 23C45.9784 23.0142 46.0496 23.0427 46.1066 23.0569C46.548 23.1566 47.0038 23.2135 47.4168 23.3559C50.023 24.2668 51.6893 26.0746 52.3586 28.7648C52.4298 29.0495 52.4726 29.3342 52.5438 29.6331H52.5153ZM37.7752 50.0163C40.1535 50.0163 42.5319 50.0163 44.9103 50.0163C45.2378 50.0163 45.5654 50.0021 45.8787 49.9594C48.1004 49.689 50.0088 47.5823 50.023 45.3476C50.0372 40.3229 50.023 35.2983 50.023 30.2736C50.023 30.0744 49.9945 29.8751 49.966 29.6758C49.6812 27.3841 47.6019 25.5052 45.2948 25.5052C40.296 25.491 35.2971 25.5052 30.2983 25.5052C30.0847 25.5052 29.8568 25.5337 29.6432 25.5621C27.3788 25.8468 25.4989 27.9392 25.4847 30.2167C25.4704 35.1132 25.4847 39.9955 25.4847 44.8921C25.4847 45.2194 25.5131 45.5611 25.5416 45.8885C25.7837 48.0663 27.92 50.0021 30.0989 50.0163C32.6482 50.0306 35.2117 50.0163 37.761 50.0163H37.7752Z" fill="#EEFBFD"/>
<path d="M37.7462 45.12C33.6731 45.12 30.3833 41.8177 30.3833 37.7468C30.3833 33.6616 33.7016 30.3735 37.789 30.3877C41.8621 30.3877 45.1376 33.7043 45.1376 37.7752C45.1376 41.8462 41.8193 45.1343 37.7462 45.12ZM37.7605 42.6575C40.4664 42.6575 42.6596 40.4797 42.6738 37.7752C42.6738 35.0708 40.5091 32.8645 37.8032 32.8645C35.083 32.8645 32.8756 35.0423 32.8756 37.761C32.8756 40.4655 35.0546 42.6575 37.7605 42.6575Z" fill="#EEFBFD"/>
<path d="M45.7645 31.612C44.7391 31.612 43.9273 30.8007 43.9131 29.7758C43.9131 28.7652 44.7391 27.9254 45.7503 27.9111C46.7472 27.9111 47.6017 28.7509 47.6159 29.7473C47.6159 30.758 46.7899 31.5835 45.7787 31.5978L45.7645 31.612Z" fill="#EEFBFD"/>
</svg>
