<svg width="137" height="137" viewBox="0 0 137 137" fill="none" xmlns="http://www.w3.org/2000/svg">
<path d="M68.505 134.5C104.958 134.5 134.51 104.951 134.51 68.5C134.51 32.049 104.958 2.5 68.505 2.5C32.0516 2.5 2.5 32.049 2.5 68.5C2.5 104.951 32.0516 134.5 68.505 134.5Z" fill="white" stroke="#048DA9" stroke-width="5"/>
<path d="M54.4024 95.3626C54.09 95.4601 53.8793 95.7676 53.8793 96.1127V103.666C53.8793 105.106 52.7459 106.276 51.351 106.276H36.6097C35.2148 106.276 34.0814 105.106 34.0814 103.666V96.1127C34.0814 95.7676 33.878 95.4601 33.5583 95.3626C31.9309 94.8225 27.2375 92.2647 30.1436 80.9983C31.2988 76.6178 34.096 74.0825 36.8713 72.6123C38.6658 71.6672 40.6129 71.1046 42.5818 70.9321C39.0945 70.257 36.4572 67.0991 36.4572 63.3037C36.4572 59.0131 39.8283 55.5327 43.9767 55.5327C48.1252 55.5327 51.5036 59.0131 51.5036 63.3037C51.5036 67.0991 48.8663 70.257 45.3789 70.9321C47.3478 71.1046 49.2949 71.6672 51.0967 72.6198C53.8721 74.0825 56.6619 76.6178 57.8171 80.9983C60.7232 92.2647 56.0298 94.8225 54.4024 95.3626Z" fill="#D4EBF0"/>
<path d="M81.1386 81.4108C81.1386 81.4108 80.8698 86.3014 76.4888 87.8916C76.2636 87.9741 76.2709 88.4617 76.2709 88.4617V103.824C76.2709 105.181 75.2101 106.276 73.8951 106.276H59.0594C57.7444 106.276 56.6837 105.181 56.6837 103.824V98.8205C56.6837 98.2579 56.9452 97.7328 57.3811 97.3803C58.6308 96.3677 61.1373 93.4798 61.1373 86.624C61.1373 75.9877 54.475 70.5945 52.5715 69.2744C52.2591 69.0568 52.1138 68.6668 52.1937 68.2917C52.7604 65.7189 55.4704 56.4478 65.1986 55.6002C61.5369 54.8651 58.8342 51.3697 59.1684 47.3042C59.4808 43.4562 62.6339 40.3658 66.3683 40.2233C70.6548 40.0583 74.1857 43.5912 74.1857 47.9793C74.1857 51.7447 71.592 54.8876 68.1483 55.6002C73.4374 56.0728 76.6051 59.0356 78.4868 62.0435C80.2377 64.8488 81.0805 68.1567 81.095 71.4946L81.1386 81.4033V81.4108Z" fill="#048DA9"/>
<path d="M100.435 80.1359C100.036 80.2784 100.123 80.781 100.123 80.781V103.786C100.123 105.159 99.0405 106.277 97.711 106.277H83.006C81.6765 106.277 80.5939 105.159 80.5939 103.786V91.3873C80.5939 91.0047 80.7538 90.6372 81.0299 90.3821C82.1342 89.377 84.9749 85.8591 84.9749 76.2879C84.9749 60.686 79.0973 55.4204 76.816 53.9652C76.2638 53.6126 76.0023 52.9226 76.1621 52.2775C76.925 49.1871 79.7657 41.2061 89.0217 40.441C85.3454 39.6985 82.6282 36.188 82.9842 32.115C83.3184 28.2671 86.4861 25.1917 90.2204 25.0642C94.4924 24.9142 97.9943 28.4546 97.9943 32.8276C97.9943 36.5931 95.3933 39.736 91.9423 40.441C101.285 41.2211 103.908 49.3821 104.562 52.3825C104.693 52.9901 104.758 53.6126 104.758 54.2352V73.3176C104.758 73.3176 105.114 78.0731 100.428 80.1284L100.435 80.1359Z" fill="#D4EBF0"/>
</svg>
