<svg width="137" height="137" viewBox="0 0 137 137" fill="none" xmlns="http://www.w3.org/2000/svg">
<circle cx="68.5" cy="68.5" r="66" fill="white" stroke="#048DA9" stroke-width="5"/>
<path d="M56.1878 95.3621C55.8754 95.4596 55.6647 95.7672 55.6647 96.1122V103.666C55.6647 105.106 54.5314 106.276 53.1364 106.276H38.3952C37.0002 106.276 35.8668 105.106 35.8668 103.666V96.1122C35.8668 95.7672 35.6634 95.4596 35.3437 95.3621C33.7163 94.8221 29.0229 92.2642 31.929 80.9979C33.0842 76.6173 35.8814 74.082 38.6567 72.6118C40.4512 71.6667 42.3983 71.1041 44.3672 70.9316C40.8799 70.2565 38.2426 67.0986 38.2426 63.3032C38.2426 59.0127 41.6137 55.5322 45.7622 55.5322C49.9106 55.5322 53.289 59.0127 53.289 63.3032C53.289 67.0986 50.6517 70.2565 47.1644 70.9316C49.1333 71.1041 51.0803 71.6667 52.8821 72.6193C55.6575 74.082 58.4474 76.6173 59.6025 80.9979C62.5086 92.2642 57.8153 94.8221 56.1878 95.3621Z" fill="#048DA9"/>
<path d="M82.9314 81.4104C82.9314 81.4104 82.6626 86.301 78.2816 87.8912C78.0564 87.9737 78.0636 88.4613 78.0636 88.4613V103.823C78.0636 105.181 77.0029 106.276 75.6879 106.276H60.8521C59.5371 106.276 58.4764 105.181 58.4764 103.823V98.82C58.4764 98.2575 58.7379 97.7324 59.1739 97.3799C60.4235 96.3672 62.93 93.4794 62.93 86.6236C62.93 75.9872 56.2678 70.5941 54.3642 69.2739C54.0518 69.0564 53.9065 68.6663 53.9864 68.2913C54.5531 65.7185 57.2631 56.4473 66.9913 55.5997C63.3296 54.8646 60.6269 51.3692 60.9611 47.3037C61.2735 43.4557 64.4267 40.3654 68.161 40.2228C72.4476 40.0578 75.9785 43.5908 75.9785 47.9788C75.9785 51.7443 73.3848 54.8871 69.941 55.5997C75.2302 56.0723 78.3978 59.0352 80.2795 62.043C82.0305 64.8484 82.8732 68.1563 82.8878 71.4942L82.9314 81.4029V81.4104Z" fill="#D4EBF0"/>
<path d="M102.221 80.1355C101.821 80.278 101.908 80.7805 101.908 80.7805V103.786C101.908 105.159 100.826 106.276 99.4961 106.276H84.7912C83.4616 106.276 82.3791 105.159 82.3791 103.786V91.3868C82.3791 91.0043 82.539 90.6367 82.815 90.3817C83.9194 89.3766 86.7601 85.8587 86.7601 76.2875C86.7601 60.6856 80.8825 55.4199 78.6012 53.9647C78.049 53.6122 77.7874 52.9221 77.9473 52.277C78.7101 49.1866 81.5509 41.2057 90.8069 40.4406C87.1306 39.698 84.4134 36.1875 84.7694 32.1145C85.1036 28.2666 88.2713 25.1912 92.0056 25.0637C96.2776 24.9137 99.7795 28.4541 99.7795 32.8271C99.7795 36.5926 97.1785 39.7355 93.7275 40.4406C103.071 41.2207 105.693 49.3817 106.347 52.382C106.478 52.9896 106.543 53.6122 106.543 54.2348V73.3171C106.543 73.3171 106.899 78.0727 102.213 80.128L102.221 80.1355Z" fill="#D4EBF0"/>
</svg>
