<svg width="254" height="268" viewBox="0 0 254 268" fill="none" xmlns="http://www.w3.org/2000/svg">
<path d="M47.43 223.82V240.1L44.68 242.66H24.65L21.97 239.65V207.44H17.35L22.74 199.04H47.33V208L39.55 211V206.92H33.51V234.78H38.05V220.84L47.43 223.82Z" fill="#A1A0A3"/>
<path d="M95.77 254.56L95.09 255.37L95.77 255.96V260.34L94.46 262.15H84.1V251.57L82.5 248.43H94.46L95.77 249.9V254.56Z" fill="#A1A0A3"/>
<path d="M112.6 262.15H108.92L107.97 259.53H103.31L102.52 262.15H98.98L101.85 251.3L100.18 248.43H108.53V249.55L112.6 262.15Z" fill="#A1A0A3"/>
<path d="M123.48 253.19V251.59H118.55V252.98L126.73 255.68V260.84L125.52 262.15H116.12L114.79 260.51V257.08H118.58V259.35H123.55V257.43L115.85 255.62L114.77 254.89V251.3L113.33 248.43H125.79L126.73 249.67V253.19H123.48Z" fill="#A1A0A3"/>
<path d="M143.68 262.15H139.17L134.47 256.31V262.15H130.31V251.52L128.73 248.43H134.26V253.83H134.68L138.96 248.43H143.29V249.07L138.28 254.94V255.48L143.68 262.15Z" fill="#A1A0A3"/>
<path d="M150.38 251.69V253.75H155.48V256.81H150.38V259.33H157.48V262.15H146.53V251.21L144.83 248.43H157.48V251.69H150.38Z" fill="#A1A0A3"/>
<path d="M172.29 248.43V251.69H167.67V262.15H164.03V251.69H161.55L159.97 248.43H172.29Z" fill="#A1A0A3"/>
<path d="M76.16 228.93V236.38H78.95V228.93H76.16Z" fill="#A1A0A3"/>
<path d="M101.62 236.38H100.79V236.17C101.06 236.25 101.35 236.32 101.62 236.38Z" fill="#A1A0A3"/>
<path d="M122.7 216.28H119.91V223.94H122.7V216.28Z" fill="#A1A0A3"/>
<path d="M159.22 217.53C159.1 217.59 158.97 217.63 158.85 217.68V217.66C158.97 217.62 159.1 217.58 159.22 217.53Z" fill="#A1A0A3"/>
<path d="M212.17 236.38L210.65 242.72H197.9V209.75H206.59V236.38H212.17Z" fill="#A1A0A3"/>
<path d="M226.29 207.19V216.01H235.19L230.2 224H226.27V234.88H235.88V242.72H218.07L216.97 241.39V207.34H211.44L216.7 199.1H235.88V207.19H226.29Z" fill="#A1A0A3"/>
<path d="M122.71 216.28V223.94H122.42C121.57 223.9 120.74 223.84 119.92 223.77V216.28H122.71Z" fill="#D3EBEF"/>
<path d="M121.07 170.31V181.04L114.85 178.01V169.33L121.07 170.31Z" fill="#D3EBEF"/>
<path d="M104.28 153.54L42.93 132.76C42.93 132.7 42.95 132.64 42.95 132.59C43.01 131.94 43.07 131.28 43.14 130.63C43.29 129.34 43.47 128.05 43.66 126.76C43.76 126.12 43.87 125.47 43.99 124.83C44.14 123.98 44.32 123.14 44.49 122.31V122.27C44.74 121.15 44.99 120.04 45.28 118.94C45.28 118.92 45.3 118.9 45.3 118.88C45.59 117.76 45.9 116.65 46.24 115.53C46.51 114.59 46.82 113.66 47.15 112.74C47.3 112.26 47.48 111.78 47.65 111.3C48.38 109.28 49.19 107.29 50.08 105.35C50.47 104.46 50.89 103.62 51.31 102.75C51.81 101.73 52.35 100.71 52.89 99.7299C53.43 98.7299 54.01 97.7499 54.58 96.7599C55.12 95.8499 55.68 94.9699 56.26 94.0799C56.36 93.9499 56.45 93.7899 56.55 93.6399C57.13 92.7699 57.72 91.9299 58.32 91.0799C59.63 89.2499 61.02 87.4599 62.5 85.7299C63.23 84.8599 63.96 84.0199 64.73 83.1899L104.28 153.56V153.54Z" fill="#D3EBEF"/>
<path d="M110.52 156.31L110.54 156.29L67.67 80.0899C69.31 78.4699 71 76.9299 72.77 75.4499C73.44 74.8699 74.14 74.3099 74.83 73.7699C74.98 73.6499 75.12 73.5399 75.25 73.4399C76.08 72.7999 76.91 72.1699 77.75 71.5699C78.58 70.9699 79.43 70.3799 80.29 69.8199C80.42 69.7199 80.56 69.6299 80.71 69.5299C81.5 69.0099 82.33 68.4899 83.14 67.9899C83.2 67.9699 83.24 67.9299 83.27 67.9099C84.23 67.3299 85.18 66.7699 86.16 66.2499C87.12 65.7099 88.1 65.1899 89.11 64.6899L98.82 81.3299L87.23 106.71C86.67 107.92 86.75 109.33 87.42 110.47L114.69 156.96L110.51 156.31H110.52Z" fill="#D3EBEF"/>
<path d="M124.02 55.8501V69.1001H117.82V56.2901C118.65 56.1901 119.48 56.1201 120.32 56.0601C120.97 56.0001 121.61 55.9601 122.26 55.9301C122.84 55.8901 123.43 55.8701 124.01 55.8501H124.02Z" fill="#D3EBEF"/>
<path d="M135.7 56.2901V69.1001H129.46V55.8501C130 55.8701 130.54 55.8901 131.08 55.9301C131.79 55.9701 132.49 56.0101 133.2 56.0601C134.03 56.1201 134.88 56.1901 135.7 56.2901Z" fill="#D3EBEF"/>
<path d="M123.63 108.47L118.53 109.41L118.36 109.45C118.36 109.45 118.34 109.43 118.32 109.43C116.74 114.24 110.75 112.74 110.23 112.53C105.34 110.97 103.72 105.12 106.67 101.32C106.05 100.86 105.44 100.38 104.84 99.8902L102.11 100.14L104.88 99.0802C105.05 98.9802 105.03 99.0402 105.21 99.1402C105.96 99.5802 106.69 100.03 107.42 100.49C107.75 100.68 108.07 100.89 108.4 101.09C111.92 103.32 115.39 105.65 118.72 108.2L123.63 108.47Z" fill="#D3EBEF"/>
<path d="M136.63 131.02C136.3 131.52 127.81 139.07 126.75 139.07C125.69 139.07 117.2 131.52 116.87 131.02C116.54 130.5 116.66 129.98 116.87 129.48C117.1 129.04 123.32 131.12 126.75 132C130.16 131.11 136.38 129.03 136.63 129.48C136.84 129.98 136.96 130.5 136.63 131.02Z" fill="#D3EBEF"/>
<path d="M141.5 136.34C141.6 136.98 141.46 137.63 141.1 138.17C138.6 143.72 135.38 148.68 131.3 152.94C130.97 153.27 130.53 153.46 130.09 153.46H123.43C122.97 153.46 122.52 153.27 122.22 152.94C118.14 148.68 114.9 143.72 112.4 138.17C112.05 137.63 111.9 136.98 112.01 136.34L112.74 132.06C112.47 131.52 112.49 130.79 112.62 130.38C114.33 123.74 115.91 117.09 118.42 110.64C117.67 117.51 115.99 124.16 114.45 130.82C114.35 131.17 114.41 131.15 114.47 131.3C115.38 132.17 118.61 134.98 119.63 135.92C121.59 137.54 124.66 140.39 126.76 141.6C128.84 140.39 131.92 137.54 133.87 135.92C134.93 134.96 138.13 132.18 139.05 131.3C139.11 131.15 139.15 131.17 139.07 130.82C137.51 124.16 135.83 117.51 135.1 110.64C137.6 117.09 139.18 123.73 140.88 130.38C141.01 130.77 141.05 131.52 140.78 132.06L141.51 136.34H141.5Z" fill="#D3EBEF"/>
<path d="M148.64 99.9102C148.04 100.39 147.43 100.87 146.81 101.34C149.76 105.13 148.14 110.99 143.25 112.55C142.71 112.76 136.74 114.26 135.16 109.45C135.14 109.45 135.14 109.47 135.12 109.47L134.95 109.43L129.85 108.49L134.76 108.22C138.09 105.68 141.56 103.35 145.08 101.11C145.41 100.92 145.73 100.71 146.06 100.51C146.79 100.05 147.52 99.6002 148.27 99.1602C148.44 99.0602 148.42 99.0102 148.6 99.1002L151.37 100.16L148.64 99.9102Z" fill="#D3EBEF"/>
<path d="M142.94 156.29L144.25 157.02L138.03 158.27C138.11 158.19 138.15 158.1 138.2 158.02L166.08 110.47C166.75 109.33 166.83 107.93 166.27 106.71L154.68 81.33L164.39 64.71C164.58 64.81 164.79 64.92 164.99 65.02C165.78 65.42 166.57 65.83 167.34 66.27C168.3 66.79 169.27 67.35 170.21 67.93L170.33 67.99C171.24 68.55 172.12 69.13 173.01 69.7C173.93 70.3 174.84 70.93 175.73 71.57C176.73 72.28 177.69 73.01 178.66 73.77C179.35 74.31 180.05 74.87 180.72 75.45C182.47 76.91 184.17 78.45 185.8 80.07L142.95 156.29H142.94Z" fill="#D3EBEF"/>
<path d="M210.56 132.76L149.17 153.56L188.76 83.1802C189.53 84.0102 190.26 84.8602 190.99 85.7202C192.47 87.4502 193.86 89.2402 195.17 91.0702C195.77 91.9202 196.36 92.7602 196.94 93.6302C197.04 93.7802 197.13 93.9402 197.23 94.0702C197.81 94.9602 198.37 95.8402 198.91 96.7502C199.49 97.7302 200.07 98.7102 200.6 99.7202C201.14 100.7 201.68 101.72 202.18 102.74C202.6 103.61 203.03 104.45 203.41 105.34C204.3 107.28 205.1 109.27 205.84 111.29C206.03 111.81 206.21 112.31 206.38 112.83C206.63 113.52 206.86 114.24 207.07 114.95C207.2 115.39 207.34 115.84 207.47 116.28C207.72 117.15 207.97 118.01 208.18 118.88C208.2 118.9 208.2 118.92 208.2 118.94C208.49 120.04 208.76 121.15 208.99 122.27V122.31C209.24 123.41 209.45 124.51 209.64 125.62C209.64 125.72 209.66 125.81 209.68 125.91C209.87 127.01 210.03 128.12 210.18 129.24C210.31 130.32 210.43 131.4 210.51 132.49C210.53 132.59 210.55 132.66 210.55 132.76H210.56Z" fill="#D3EBEF"/>
<path d="M84.79 57.2901L83.65 57.5801C83.98 57.4101 84.32 57.2301 84.65 57.0601L84.78 57.2901H84.79Z" fill="#A1A0A3"/>
<path d="M39.48 131.6C39.25 133.89 39.11 136.22 39.09 138.59L38.86 138.53V131.39L39.48 131.6Z" fill="#1E1161"/>
<path d="M214.62 131.39V138.53L214.39 138.59C214.37 136.22 214.24 133.89 214.02 131.6L214.62 131.39Z" fill="#1E1161"/>
<path d="M46.52 199.04C46.77 199.41 47.04 199.77 47.33 200.12L47.33 199.04L46.52 199.04ZM168.56 49.4702L167.08 52.0102L165.15 55.2802C165.15 55.2802 165.15 55.3002 165.17 55.3002L167.1 52.0102L168.58 49.4702H168.56ZM144.85 41.9399L142.35 44.4599L144.87 41.9399H144.85ZM142.33 44.4599L139.81 46.9999L142.35 44.4599H142.33ZM139.79 47.0099V47.9299H139.81V47.0099H139.79ZM126.75 46.7899L125.88 47.0199C126.17 46.9999 126.44 46.9999 126.73 46.9999C127.04 46.9999 127.33 46.9999 127.64 47.0199L126.75 46.7899Z" fill="#A1A0A3"/>
<path d="M106.14 236.38L105.95 237.4H105.93L104.89 242.72H91.82V209.75H104.53L106.14 216.28H100.79V222.42H105.84V228.52H100.79L100.79 236.38L106.14 236.38Z" fill="white"/>
<path d="M253.31 205.82H245.13V189.55H213.16C221.58 174.93 226.39 157.99 226.39 139.92C226.39 102.18 205.42 69.36 174.49 52.44L183.16 37.86C184.37 36.13 184.37 33.16 184.37 32.43V6.97C184.37 5.28 183.62 1.06 180.94 0.35C180.57 0.12 180.15 0 179.65 0C179.55 0 179.46 0 179.34 0.02C177.32 0 175.1 2.93 174.29 3.72L136.76 40.79L136.28 41.27L126.75 41.15L117.22 41.27L116.74 40.79L79.2 3.72C78.39 2.93 76.18 0 74.15 0.02C74.03 0 73.94 0 73.84 0C73.34 0 72.92 0.12 72.55 0.35C69.87 1.06 69.12 5.28 69.12 6.97V32.43C69.12 33.16 69.12 36.13 70.33 37.86L79 52.44C48.05 69.35 27.08 102.18 27.08 139.92C27.08 158.16 31.97 175.24 40.52 189.93H17.33L0 216.68H12.59V240.08C12.59 249.73 23.1 251.73 23.1 251.73H77.14L78.06 253.71V268H174.4V258.14H178.31V252.04H245.32V225.16H241.01L253.3 205.83L253.31 205.82ZM242.56 227.68V249.73H175.76V255.76H171.83V266.12H80.24V252.25L78.56 249.94H25.82C15.67 249.94 15.04 239.1 15.04 239.1V214.37H4.33L18.89 191.95H45.2C44.78 191.28 44.35 190.6 43.95 189.93C35.11 175.33 30.03 158.23 30.03 139.92C30.03 103.25 50.44 71.37 80.52 54.96C81.25 54.56 81.98 54.17 82.73 53.77L81.25 51.25L72.66 36.54C72.29 35.92 72.1 35.19 72.1 34.48V9.47C72.1 7.81 71.68 3.85 73.22 3.21C73.64 2.96 74.14 2.82 74.78 2.9C75.84 2.9 78.3 5.79 79.09 6.56L116.29 43.76C119.72 43.39 123.2 43.2 126.73 43.2H126.75C130.29 43.2 133.78 43.39 137.23 43.76L174.43 6.57C175.22 5.8 177.68 2.91 178.74 2.91C179.38 2.83 179.88 2.97 180.3 3.22C181.84 3.86 181.42 7.82 181.42 9.48V34.48C181.42 35.19 181.23 35.92 180.86 36.54L172.25 51.27L170.77 53.81C171.52 54.2 172.25 54.58 172.98 54.98C203.04 71.37 223.43 103.28 223.43 139.92C223.43 158.06 218.44 175.04 209.74 189.55C206.81 194.44 203.48 199.02 199.76 203.3H206.06L212.99 192.11H242.68V208.63H248.63L236.46 227.68H242.56Z" fill="#A1A0A3"/>
<path d="M185.68 199.89C185.28 200.29 184.87 200.7 184.45 201.08C184.12 201.39 183.81 201.7 183.49 201.99C182.99 202.43 182.51 202.88 182.01 203.3H154.47V190.71L155.53 189.69H155.55L163.23 182.31L153.99 177.96V165.67L185.68 199.89Z" fill="#D3EBEF"/>
<path d="M210.86 139.42V139.92C210.86 141.08 210.84 142.23 210.78 143.37V143.41C210.74 144.55 210.66 145.68 210.57 146.82C210.49 147.96 210.38 149.09 210.22 150.21C210.1 151.25 209.95 152.29 209.8 153.33C209.76 153.5 209.72 153.7 209.7 153.89C209.55 154.78 209.39 155.64 209.22 156.51C209.03 157.47 208.82 158.45 208.57 159.42C208.45 159.92 208.34 160.4 208.22 160.88C207.53 163.58 206.7 166.23 205.74 168.83C205.51 169.47 205.28 170.1 205.01 170.74C204.51 172.01 203.99 173.26 203.41 174.51C203.18 175.05 202.93 175.59 202.68 176.13C202.22 177.05 201.76 177.98 201.27 178.88C200.85 179.75 200.36 180.59 199.88 181.42C199.82 181.54 199.76 181.65 199.69 181.77C199.23 182.6 198.73 183.41 198.23 184.22C197.65 185.14 197.07 186.05 196.48 186.94C196.48 186.94 196.46 186.94 196.46 186.96C195.86 187.85 195.23 188.73 194.59 189.6C192.72 192.18 190.7 194.63 188.54 196.96L153.97 159.68V155.08L150.39 155.81L148.91 156.1L147.6 156.37L148.87 154.1L210.86 139.45V139.42Z" fill="#D3EBEF"/>
<path d="M105.37 155.48L102.79 155.06V156.1L71.5 189.88H71.48L64.93 196.95C62.87 194.72 60.92 192.37 59.1 189.9C59.02 189.8 58.95 189.69 58.89 189.59C58.31 188.84 57.77 188.07 57.23 187.28C57.15 187.16 57.08 187.05 57 186.93C56.48 186.16 55.96 185.35 55.46 184.56C55.42 184.52 55.4 184.48 55.38 184.44C54.94 183.75 54.51 183.03 54.11 182.32C53.57 181.43 53.07 180.53 52.59 179.6C52.32 179.14 52.07 178.66 51.84 178.17C50.59 175.76 49.45 173.26 48.47 170.72C48.22 170.12 47.99 169.51 47.76 168.89C47.22 167.45 46.72 165.96 46.28 164.46C46.13 164 45.99 163.54 45.86 163.05C45.53 161.91 45.22 160.78 44.97 159.62C44.82 159 44.66 158.39 44.55 157.77C44.43 157.29 44.34 156.81 44.24 156.33C44.07 155.5 43.91 154.65 43.78 153.81C43.76 153.71 43.74 153.6 43.72 153.5C43.57 152.56 43.43 151.59 43.3 150.61C43.28 150.46 43.26 150.32 43.26 150.17C43.13 149.23 43.03 148.28 42.97 147.34C42.91 147.01 42.89 146.69 42.87 146.38C42.79 145.42 42.74 144.45 42.7 143.47V143.34C42.64 142.2 42.62 141.07 42.62 139.91V139.41L104.59 154.06L105.38 155.47L105.37 155.48Z" fill="#D3EBEF"/>
<path d="M102.79 173.89L93.82 182.79L102.79 186.72V203.3H71.48C70.98 202.88 70.5 202.43 70 201.99C69.67 201.7 69.36 201.39 69.04 201.08C68.62 200.69 68.21 200.29 67.81 199.89L77.11 189.86L102.8 162.13V173.9L102.79 173.89Z" fill="#D3EBEF"/>
<path d="M126.75 46.7899L125.88 47.0199C126.17 46.9999 126.44 46.9999 126.73 46.9999C127.04 46.9999 127.33 46.9999 127.64 47.0199L126.75 46.7899ZM139.79 47.0099V47.9299H139.81V47.0099H139.79ZM142.33 44.4599L139.81 46.9999L142.35 44.4599H142.33ZM167.07 52.01L165.14 55.28C165.14 55.28 165.14 55.3 165.16 55.3L167.09 52.01H167.07Z" fill="#1E1161"/>
<path d="M84.65 57.0601C84.32 57.2301 83.98 57.4101 83.65 57.5801L84.79 57.2901L84.66 57.06L84.65 57.0601ZM38.86 131.39V138.53L39.09 138.59C39.11 136.22 39.24 133.89 39.48 131.6L38.86 131.39ZM168.85 57.0802L168.73 57.2902L169.75 57.5602C169.46 57.3902 169.15 57.2302 168.84 57.0802H168.85ZM214.02 131.6C214.23 133.89 214.37 136.22 214.39 138.59L214.62 138.53V131.39L214.02 131.6ZM165.15 55.29L164.59 56.27H164.61L165.17 55.31L165.15 55.29Z" fill="#008DA9"/>
<path d="M219.66 139.92C219.66 141.25 219.64 142.56 219.56 143.87C219.54 144.35 219.54 144.81 219.5 145.28C219.46 145.99 219.42 146.71 219.35 147.4C219.31 148.07 219.25 148.75 219.18 149.42C219.08 150.4 218.97 151.38 218.83 152.35C218.75 152.91 218.68 153.45 218.6 154.01C218.6 154.03 218.6 154.05 218.58 154.09C218.48 154.73 218.39 155.34 218.27 155.98C217.77 158.93 217.11 161.81 216.33 164.65C216.2 165.15 216.04 165.63 215.91 166.13C215.18 168.65 214.35 171.12 213.39 173.52C213.16 174.17 212.91 174.81 212.64 175.43C212.24 176.41 211.83 177.37 211.39 178.34C210.95 179.32 210.48 180.28 210 181.23C209.42 182.44 208.79 183.62 208.13 184.79C207.74 185.48 207.36 186.18 206.96 186.87C206.42 187.79 205.88 188.7 205.3 189.59C204.82 190.38 204.3 191.15 203.8 191.9C202.55 193.75 201.22 195.56 199.83 197.31C199.25 198.06 198.64 198.81 198.02 199.54C197.4 200.29 196.79 201 196.13 201.72C195.65 202.26 195.17 202.8 194.67 203.32H187.33C191.66 199.16 195.59 194.56 199 189.59H199.02C208.73 175.47 214.41 158.37 214.41 139.95C214.41 139.51 214.41 139.06 214.39 138.62L214.62 138.56V131.42L214.02 131.63C211.13 100.97 192.45 74.8998 166.2 61.6498L168.72 57.3198L169.74 57.5898H169.76C170.68 58.0698 171.61 58.5698 172.51 59.0898C173.32 59.5498 174.11 60.0098 174.9 60.4798C175.02 60.5598 175.11 60.6098 175.23 60.6898C176.12 61.2298 176.98 61.7898 177.85 62.3698C178.47 62.7698 179.06 63.1798 179.68 63.5998C180.05 63.8498 180.41 64.0998 180.76 64.3698C181.49 64.8898 182.2 65.4298 182.94 65.9698C183.67 66.5098 184.4 67.0898 185.1 67.6798C187.68 69.7198 190.13 71.9198 192.44 74.2498C193.13 74.9398 193.81 75.6598 194.48 76.3698C195.21 77.1198 195.91 77.8898 196.58 78.6798C196.89 79.0298 197.2 79.3698 197.5 79.7398C197.83 80.1098 198.14 80.4698 198.44 80.8598C198.9 81.4198 199.38 82.0198 199.83 82.5898C200.75 83.7598 201.66 84.9598 202.51 86.1698C203.09 86.9798 203.65 87.7898 204.2 88.6198C204.74 89.4498 205.28 90.2798 205.8 91.1198C205.93 91.3298 206.07 91.5598 206.2 91.7698C206.68 92.5598 207.14 93.3498 207.61 94.1598C208.07 94.9698 208.52 95.7798 208.94 96.6098C209.19 97.0698 209.42 97.5298 209.67 98.0198C210.17 98.9998 210.65 99.9798 211.1 100.97C211.31 101.41 211.5 101.84 211.7 102.28C212.55 104.17 213.32 106.07 214.03 108.02C214.3 108.73 214.55 109.45 214.78 110.18C215.17 111.3 215.53 112.43 215.86 113.59C216.09 114.34 216.3 115.09 216.51 115.86C218.05 121.64 219.05 127.63 219.46 133.79C219.52 134.44 219.54 135.1 219.58 135.75C219.64 137.14 219.68 138.56 219.68 139.97L219.66 139.92Z" fill="#008DA9"/>
<path d="M54.71 189.91C58.06 194.74 61.91 199.23 66.15 203.29H58.79C58.15 202.64 57.56 201.98 56.96 201.29C56.31 200.56 55.67 199.79 55.03 199.02C54.95 198.94 54.88 198.85 54.82 198.75C54.36 198.21 53.91 197.65 53.49 197.09C52.89 196.36 52.32 195.61 51.78 194.84C51.07 193.9 50.39 192.93 49.74 191.95C49.28 191.28 48.83 190.6 48.39 189.91C47.72 188.87 47.06 187.79 46.45 186.71C45.99 185.94 45.54 185.15 45.12 184.36C44.73 183.65 44.35 182.93 43.98 182.22C43.48 181.24 42.98 180.24 42.52 179.22C42.5 179.18 42.48 179.14 42.46 179.1C42 178.1 41.55 177.1 41.11 176.08C40.61 174.91 40.15 173.73 39.7 172.52C39.33 171.6 39.01 170.65 38.68 169.71C37.97 167.57 37.31 165.38 36.74 163.14C36.55 162.39 36.37 161.64 36.2 160.91C35.29 157.06 34.66 153.11 34.27 149.09C34.19 148.42 34.14 147.74 34.08 147.07C34.04 146.45 33.98 145.82 33.96 145.18C33.92 144.76 33.9 144.35 33.9 143.93C33.82 142.6 33.8 141.27 33.8 139.92C33.8 138.57 33.84 137.09 33.9 135.7C33.94 135.05 33.96 134.39 34.02 133.74C34.19 131.04 34.48 128.39 34.89 125.77C35.01 125 35.12 124.25 35.26 123.48C35.57 121.79 35.91 120.09 36.32 118.43C36.44 117.91 36.57 117.37 36.71 116.85C36.98 115.81 37.25 114.77 37.56 113.75C37.83 112.86 38.1 111.96 38.39 111.09C38.72 110.09 39.06 109.09 39.43 108.11C39.78 107.11 40.16 106.13 40.57 105.14C40.86 104.39 41.19 103.62 41.51 102.87C42.11 101.5 42.72 100.15 43.4 98.8298C43.77 98.0798 44.15 97.3298 44.54 96.5998C45.02 95.6798 45.52 94.7698 46.04 93.8698C46.56 92.9598 47.1 92.0598 47.64 91.1698C48.18 90.2798 48.74 89.4198 49.33 88.5498C49.79 87.8398 50.27 87.1198 50.76 86.4298C51.47 85.4298 52.2 84.4298 52.96 83.4598C53.27 83.0698 53.58 82.6698 53.88 82.2898C54.25 81.7898 54.65 81.3098 55.05 80.8298C56.32 79.2898 57.63 77.8098 58.98 76.3598C59.35 75.9898 59.69 75.6098 60.06 75.2398C60.43 74.8498 60.77 74.4898 61.16 74.1198C61.53 73.7298 61.89 73.3898 62.26 73.0398C62.63 72.6698 63.01 72.3298 63.4 71.9598C64.09 71.3198 64.79 70.6898 65.5 70.0498C66.21 69.4298 66.93 68.8198 67.66 68.2198C68.6 67.4298 69.55 66.6798 70.53 65.9498C71.34 65.3298 72.15 64.7398 72.98 64.1398C73.42 63.8298 73.87 63.4998 74.33 63.2198C74.75 62.9298 75.2 62.6198 75.62 62.3498C76.29 61.9098 76.99 61.4398 77.66 61.0198C77.97 60.8298 78.28 60.6298 78.58 60.4398C79.37 59.9798 80.14 59.5198 80.93 59.0698C81.84 58.5498 82.76 58.0498 83.68 57.5698L84.82 57.2798L87.34 61.5898C61.07 74.8398 42.37 100.91 39.51 131.59L38.89 131.38V138.52L39.12 138.58C39.1 139.02 39.1 139.47 39.1 139.91C39.1 158.49 44.88 175.73 54.74 189.9L54.71 189.91Z" fill="#008DA9"/>
<path d="M135.7 47.45V52.71C132.75 52.4 129.75 52.25 126.73 52.25C123.71 52.25 120.74 52.4 117.81 52.71V47.43C119.12 47.3 120.45 47.2 121.8 47.14C122.47 47.1 123.15 47.08 123.82 47.06C124.15 47.04 124.49 47.02 124.84 47.04C125.19 47.02 125.51 47 125.84 47.02L125.88 47.0199C126.17 46.9999 126.44 46.9999 126.73 46.9999C127.04 46.9999 127.33 46.9999 127.64 47.0199C127.64 47.0199 127.653 47.02 127.68 47.02C128.35 47.02 129.01 47.02 129.68 47.06C130.35 47.08 131.03 47.1 131.7 47.14C133.05 47.2 134.38 47.31 135.71 47.45H135.7Z" fill="#008DA9"/>
<path d="M123.63 108.47L118.53 109.41L118.36 109.45C118.36 109.45 118.34 109.43 118.32 109.43C116.74 114.24 110.75 112.74 110.23 112.53C105.34 110.97 103.72 105.12 106.67 101.32C106.05 100.86 105.44 100.38 104.84 99.8902L102.11 100.14L104.88 99.0802C105.05 98.9802 105.03 99.0402 105.21 99.1402C105.96 99.5802 106.69 100.03 107.42 100.49C107.75 100.68 108.07 100.89 108.4 101.09C111.92 103.32 115.39 105.65 118.72 108.2L123.63 108.47Z" fill="#008DA9"/>
<path d="M136.63 131.02C136.3 131.52 127.81 139.07 126.75 139.07C125.69 139.07 117.2 131.52 116.87 131.02C116.54 130.5 116.66 129.98 116.87 129.48C117.1 129.04 123.32 131.12 126.75 132C130.16 131.11 136.38 129.03 136.63 129.48C136.84 129.98 136.96 130.5 136.63 131.02Z" fill="#008DA9"/>
<path d="M141.5 136.34C141.6 136.98 141.46 137.63 141.1 138.17C138.6 143.72 135.38 148.68 131.3 152.94C130.97 153.27 130.53 153.46 130.09 153.46H123.43C122.97 153.46 122.52 153.27 122.22 152.94C118.14 148.68 114.9 143.72 112.4 138.17C112.05 137.63 111.9 136.98 112.01 136.34L112.74 132.06C112.47 131.52 112.49 130.79 112.62 130.38C114.33 123.74 115.91 117.09 118.42 110.64C117.67 117.51 115.99 124.16 114.45 130.82C114.35 131.17 114.41 131.15 114.47 131.3C115.38 132.17 118.61 134.98 119.63 135.92C121.59 137.54 124.66 140.39 126.76 141.6C128.84 140.39 131.92 137.54 133.87 135.92C134.93 134.96 138.13 132.18 139.05 131.3C139.11 131.15 139.15 131.17 139.07 130.82C137.51 124.16 135.83 117.51 135.1 110.64C137.6 117.09 139.18 123.73 140.88 130.38C141.01 130.77 141.05 131.52 140.78 132.06L141.51 136.34H141.5Z" fill="#008DA9"/>
<path d="M148.64 99.9102C148.04 100.39 147.43 100.87 146.81 101.34C149.76 105.13 148.14 110.99 143.25 112.55C142.71 112.76 136.74 114.26 135.16 109.45C135.14 109.45 135.14 109.47 135.12 109.47L134.95 109.43L129.85 108.49L134.76 108.22C138.09 105.68 141.56 103.35 145.08 101.11C145.41 100.92 145.73 100.71 146.06 100.51C146.79 100.05 147.52 99.6002 148.27 99.1602C148.44 99.0602 148.42 99.0102 148.6 99.1002L151.37 100.16L148.64 99.9102Z" fill="#008DA9"/>
<path d="M139.81 47.0099L139.81 73.2002H113.72V47.0102L76.18 9.47021V34.4702L77.59 36.8802V18.1202L104.03 42.8702L106.63 45.3202L108.9 47.4402V70.3402L114.35 82.8402L100.41 75.9502L103.43 81.1302L90.97 108.44L118.83 155.99H134.68L162.54 108.44L150.08 81.1302L153.14 75.9102L139.1 82.8402L144.57 70.3402V47.4402L146.82 45.3202L175.86 18.1302V36.9402L177.3 34.4802V9.49021L139.79 47.0002L139.81 47.0099ZM106.66 101.33C106.04 100.87 105.43 100.39 104.83 99.9002L102.1 100.15L104.87 99.0902C105.04 98.9902 105.02 99.0502 105.2 99.1502C105.95 99.5902 106.68 100.04 107.41 100.5C107.74 100.69 108.06 100.9 108.39 101.1C111.91 103.33 115.38 105.66 118.71 108.21L123.62 108.48L118.52 109.42L118.35 109.46C118.35 109.46 118.33 109.44 118.31 109.44C116.73 114.25 110.74 112.75 110.22 112.54C105.33 110.98 103.71 105.13 106.66 101.33ZM126.75 132.01C130.16 131.12 136.38 129.04 136.63 129.49C136.84 129.99 136.96 130.51 136.63 131.03C136.3 131.53 127.81 139.08 126.75 139.08C125.69 139.08 117.2 131.53 116.87 131.03C116.54 130.51 116.66 129.99 116.87 129.49C117.1 129.05 123.32 131.13 126.75 132.01ZM141.1 138.17C138.6 143.72 135.38 148.68 131.3 152.94C130.97 153.27 130.53 153.46 130.09 153.46H123.43C122.97 153.46 122.52 153.27 122.22 152.94C118.14 148.68 114.9 143.72 112.4 138.17C112.05 137.63 111.9 136.98 112.01 136.34L112.74 132.06C112.47 131.52 112.49 130.79 112.62 130.38C114.33 123.74 115.91 117.09 118.42 110.64C117.67 117.51 115.99 124.16 114.45 130.82C114.35 131.17 114.41 131.15 114.47 131.3C115.38 132.17 118.61 134.98 119.63 135.92C121.59 137.54 124.66 140.39 126.76 141.6C128.84 140.39 131.92 137.54 133.87 135.92C134.93 134.96 138.13 132.18 139.05 131.3C139.11 131.15 139.15 131.17 139.07 130.82C137.51 124.16 135.83 117.51 135.1 110.64C137.6 117.09 139.18 123.73 140.88 130.38C141.01 130.77 141.05 131.52 140.78 132.06L141.51 136.34C141.61 136.98 141.47 137.63 141.11 138.17L141.1 138.17ZM145.08 101.1C145.41 100.91 145.73 100.7 146.06 100.5C146.79 100.04 147.52 99.5902 148.27 99.1502C148.44 99.0502 148.42 99.0002 148.6 99.0902L151.37 100.15L148.64 99.9002C148.04 100.38 147.43 100.86 146.81 101.33C149.76 105.12 148.14 110.98 143.25 112.54C142.71 112.75 136.74 114.25 135.16 109.44C135.14 109.44 135.14 109.46 135.12 109.46L134.95 109.42L129.85 108.48L134.76 108.21C138.09 105.67 141.56 103.34 145.08 101.1Z" fill="#008DA9"/>
<path d="M177.34 9.47021V34.4702L175.87 36.9702L168.58 49.4702L167.09 52.01L165.17 55.31L164.61 56.27H164.59L165.15 55.29L167.07 52.01L168.56 49.4702L175.87 36.9302L177.32 34.4702V9.49021L177.34 9.47021Z" fill="#008DA9"/>
<path d="M136.63 131.02C136.3 131.52 127.81 139.07 126.75 139.07C125.69 139.07 117.2 131.52 116.87 131.02C116.54 130.5 116.66 129.98 116.87 129.48C117.1 129.04 123.32 131.12 126.75 132C130.16 131.11 136.38 129.03 136.63 129.48C136.84 129.98 136.96 130.5 136.63 131.02Z" fill="#1E1161"/>
<path d="M123.63 108.47L118.53 109.41L118.36 109.45C118.36 109.45 118.34 109.43 118.32 109.43C115.93 107.97 113.6 106.37 111.31 104.73C110.1 103.86 108.88 102.98 107.69 102.09C105.57 105.69 106.88 109.79 110.23 112.53C105.34 110.97 103.72 105.12 106.67 101.32C106.05 100.86 105.44 100.38 104.84 99.8902L102.11 100.14L104.88 99.0802C105.05 98.9802 105.03 99.0402 105.21 99.1402C105.96 99.5802 106.69 100.03 107.42 100.49C107.75 100.68 108.07 100.89 108.4 101.09C111.92 103.32 115.39 105.65 118.72 108.2L123.63 108.47Z" fill="#1E1161"/>
<path d="M118.32 109.44C116.74 114.25 110.75 112.75 110.23 112.54C106.88 109.81 105.57 105.7 107.69 102.1C108.88 102.99 110.1 103.87 111.31 104.74C113.6 106.38 115.93 107.98 118.32 109.44Z" fill="white"/>
<path d="M148.64 99.9102C148.04 100.39 147.43 100.87 146.81 101.34C149.76 105.13 148.14 110.99 143.25 112.55C146.6 109.82 147.91 105.71 145.79 102.11C144.6 103 143.38 103.88 142.17 104.75C139.88 106.39 137.55 107.99 135.16 109.45C135.14 109.45 135.14 109.47 135.12 109.47L134.95 109.43L129.85 108.49L134.76 108.22C138.09 105.68 141.56 103.35 145.08 101.11C145.41 100.92 145.73 100.71 146.06 100.51C146.79 100.05 147.52 99.6002 148.27 99.1602C148.44 99.0602 148.42 99.0102 148.6 99.1002L151.37 100.16L148.64 99.9102Z" fill="#1E1161"/>
<path d="M143.25 112.54C142.71 112.75 136.74 114.25 135.16 109.44C137.55 107.98 139.88 106.38 142.17 104.74C143.38 103.87 144.6 102.99 145.79 102.1C147.91 105.7 146.6 109.8 143.25 112.54Z" fill="white"/>
<path d="M139.79 47.0099V47.9299H139.81V47.0099H139.79ZM144.85 41.9399L142.35 44.4599L144.87 41.9399H144.85ZM142.33 44.4599L139.81 46.9999L142.35 44.4599H142.33Z" fill="#1E1161"/>
<path d="M175.87 36.9302V36.9702L168.58 49.4702L167.09 52.01L165.17 55.31L164.61 56.27H164.59L165.15 55.29L167.07 52.01L168.56 49.4702L175.87 36.9302Z" fill="white"/>
<path d="M141.5 136.34C141.6 136.98 141.46 137.63 141.1 138.17C138.6 143.72 135.38 148.68 131.3 152.94C130.97 153.27 130.53 153.46 130.09 153.46H123.43C122.97 153.46 122.52 153.27 122.22 152.94C118.14 148.68 114.9 143.72 112.4 138.17C112.05 137.63 111.9 136.98 112.01 136.34L112.74 132.06C112.76 132.14 112.8 132.19 112.84 132.25C113.53 133.21 114.05 133.44 114.77 134.16C118.02 136.97 121.61 140.32 125.25 142.56C125.42 142.66 125.6 142.75 125.77 142.85H125.79C126.06 142.98 126.37 143.1 126.77 143.14C127.19 143.1 127.48 142.99 127.75 142.85C127.92 142.75 128.08 142.66 128.27 142.56C131.93 140.31 135.49 136.98 138.76 134.16C139.47 133.45 139.99 133.22 140.69 132.25C140.73 132.19 140.77 132.13 140.79 132.06L141.52 136.34L141.5 136.34Z" fill="white"/>
<path d="M126.75 141.62V143.14C126.35 143.1 126.04 142.99 125.77 142.85L125.75 142.85C125.58 142.75 125.4 142.66 125.23 142.56C121.59 140.33 118.01 136.98 114.75 134.16C114.04 133.45 113.52 133.22 112.82 132.25C112.78 132.19 112.74 132.13 112.72 132.06C112.45 131.52 112.47 130.79 112.6 130.38C114.31 123.74 115.89 117.09 118.4 110.64C117.65 117.51 115.97 124.16 114.43 130.82C114.33 131.17 114.39 131.15 114.45 131.3C115.36 132.17 118.59 134.98 119.61 135.92C121.57 137.54 124.64 140.39 126.74 141.6L126.75 141.62Z" fill="#1E1161"/>
<path d="M140.77 132.06C140.75 132.14 140.71 132.19 140.67 132.25C139.98 133.21 139.46 133.44 138.74 134.16C135.47 136.97 131.9 140.3 128.25 142.56C128.06 142.66 127.9 142.75 127.73 142.85C127.46 142.98 127.17 143.1 126.75 143.14V141.62C128.83 140.41 131.91 137.56 133.86 135.94C134.92 134.98 138.12 132.2 139.04 131.32C139.1 131.17 139.14 131.19 139.06 130.84C137.5 124.18 135.82 117.53 135.09 110.66C137.59 117.11 139.17 123.75 140.87 130.4C141 130.79 141.04 131.54 140.77 132.08V132.06Z" fill="#1E1161"/>
<path d="M134.31 149.29C131.63 149.6 130.78 151.27 126.76 151.27L126.74 150.67V151.27C122.64 151.27 121.87 149.59 119.17 149.29C121.38 148.96 123.7 149.56 125.74 149.44V142.85H127.72V149.44C129.76 149.56 132.11 148.96 134.31 149.29Z" fill="#1E1161"/>
<path d="M126.76 151.27H126.74V150.67L126.76 151.27Z" fill="#1E1161"/>
<path d="M126.76 151.27H126.74V150.67L126.76 151.27Z" fill="#1E1161"/>
<path d="M47.43 223.82V240.1L44.68 242.66H24.65L21.97 239.65V207.44H17.35L22.74 199.04H47.33V208L39.55 211V206.92H33.51V234.78H38.05V220.84L47.43 223.82Z" fill="#1E1161"/>
<path d="M95.77 254.56L95.09 255.37L95.77 255.96V260.34L94.46 262.15H84.1V251.57L82.5 248.43H94.46L95.77 249.9V254.56Z" fill="#1E1161"/>
<path d="M112.6 262.15H108.92L107.97 259.53H103.31L102.52 262.15H98.98L101.85 251.3L100.18 248.43H108.53V249.55L112.6 262.15Z" fill="#1E1161"/>
<path d="M123.48 253.19V251.59H118.55V252.98L126.73 255.68V260.84L125.52 262.15H116.12L114.79 260.51V257.08H118.58V259.35H123.55V257.43L115.85 255.62L114.77 254.89V251.3L113.33 248.43H125.79L126.73 249.67V253.19H123.48Z" fill="#1E1161"/>
<path d="M143.68 262.15H139.17L134.47 256.31V262.15H130.31V251.52L128.73 248.43H134.26V253.83H134.68L138.96 248.43H143.29V249.07L138.28 254.94V255.48L143.68 262.15Z" fill="#1E1161"/>
<path d="M150.38 251.69V253.75H155.48V256.81H150.38V259.33H157.48V262.15H146.53V251.21L144.83 248.43H157.48V251.69H150.38Z" fill="#1E1161"/>
<path d="M172.29 248.43V251.69H167.67V262.15H164.03V251.69H161.55L159.97 248.43H172.29Z" fill="#1E1161"/>
<path d="M160.72 209.75H151.9L149.17 221.02L148.53 223.64L147.97 221.35V221.33L145.18 209.76H136.03L139.3 223.12V223.14L140.15 226.59H140.17L141.42 231.71L142.31 235.39H142.33L143.02 238.24L144.12 242.73H152.94L155.41 232.31L156.41 228.03V228.01L158.85 217.68C158.97 217.62 159.1 217.58 159.22 217.53C159.1 217.59 158.97 217.63 158.85 217.66L160.72 209.75ZM248.65 208.63H242.7V192.11H213.01L206.08 203.3H199.78C203.5 199.02 206.83 194.44 209.76 189.55C218.46 175.05 223.45 158.06 223.45 139.92C223.45 103.27 203.06 71.37 173 54.98C172.27 54.58 171.54 54.19 170.79 53.81L172.27 51.27L180.88 36.54C181.25 35.92 181.44 35.19 181.44 34.48V9.46997C181.44 7.80997 181.86 3.84997 180.32 3.20997C179.9 2.95997 179.4 2.81997 178.76 2.89997C177.7 2.89997 175.24 5.78997 174.45 6.55997L137.25 43.76C133.8 43.39 130.32 43.2 126.77 43.2L126.75 43.2C123.23 43.2 119.74 43.39 116.31 43.76L79.09 6.56997C78.3 5.79997 75.84 2.90997 74.78 2.90997C74.14 2.82997 73.64 2.96997 73.22 3.21997C71.68 3.85997 72.1 7.81997 72.1 9.47997L72.1 34.48C72.1 35.19 72.29 35.92 72.66 36.54L81.25 51.25L82.73 53.77C81.98 54.17 81.25 54.56 80.52 54.96C50.44 71.37 30.03 103.26 30.03 139.92C30.03 158.23 35.11 175.33 43.95 189.93C44.35 190.6 44.78 191.28 45.2 191.95H18.89L4.33 214.37H15.04V239.1C15.04 239.1 15.68 249.94 25.82 249.94L78.57 249.94L80.25 252.25V266.12H171.84V255.76H175.77V249.73H242.57V227.68H236.48L248.65 208.63ZM117.81 47.43C119.12 47.3 120.45 47.2 121.8 47.14C122.47 47.1 123.15 47.08 123.82 47.06C124.15 47.04 124.49 47.02 124.84 47.04C125.19 47.02 125.51 47 125.84 47.02L125.88 47.0199L126.75 46.7899L127.64 47.0199C127.64 47.0199 127.66 47 127.68 47.02C128.35 47.02 129.01 47.02 129.68 47.06C130.35 47.08 131.03 47.1 131.7 47.14C133.05 47.2 134.38 47.31 135.71 47.45L135.71 52.71C132.76 52.4 129.76 52.25 126.74 52.25C123.72 52.25 120.75 52.4 117.82 52.71V47.43L117.81 47.43ZM135.7 56.2901V69.1001H129.46V55.8501C130 55.8701 130.54 55.8901 131.08 55.9301C131.79 55.9701 132.49 56.0101 133.2 56.0601C134.03 56.1201 134.88 56.1901 135.7 56.2901ZM117.81 56.29C118.64 56.19 119.47 56.12 120.31 56.06C120.96 56 121.6 55.96 122.25 55.93C122.83 55.89 123.42 55.87 124 55.85V69.1H117.8V56.29H117.81ZM77.59 36.8802L76.18 34.4702V9.47021L113.71 47V73.19H139.8V47.92H139.78V47H139.8L142.32 44.46H142.34L144.84 41.94H144.86L177.33 9.46997V34.47L167.09 52.01L165.16 55.3L164.6 56.26L162.5 59.84L153.14 75.88L150.08 81.1L162.54 108.41L134.68 155.96H118.83L90.97 108.41L103.43 81.1L100.41 75.92L92.82 62.96L90.99 59.82L88.91 56.26L88.33 55.28L86.42 52.01L84.92 49.45L77.58 36.88L77.59 36.8802ZM209.65 125.61C209.65 125.71 209.67 125.8 209.69 125.9C209.88 127 210.04 128.11 210.19 129.23C210.32 130.31 210.44 131.39 210.52 132.48C210.54 132.58 210.56 132.65 210.56 132.75L149.17 153.55L188.76 83.17C189.53 84 190.26 84.85 190.99 85.71C192.47 87.44 193.86 89.23 195.17 91.06C195.77 91.91 196.36 92.75 196.94 93.62C197.04 93.77 197.13 93.93 197.23 94.06C197.81 94.95 198.37 95.83 198.91 96.74C199.49 97.72 200.07 98.7 200.6 99.71C201.14 100.69 201.68 101.71 202.18 102.73C202.6 103.6 203.03 104.44 203.41 105.33C204.3 107.27 205.1 109.26 205.84 111.28C206.03 111.8 206.21 112.3 206.38 112.82C206.63 113.51 206.86 114.23 207.07 114.94C207.2 115.38 207.34 115.83 207.47 116.27C207.72 117.14 207.97 118 208.18 118.87C208.2 118.89 208.2 118.91 208.2 118.93C208.49 120.03 208.76 121.14 208.99 122.26V122.3C209.24 123.4 209.45 124.5 209.64 125.61H209.65ZM150.4 155.79L148.92 156.08L147.61 156.35L148.88 154.08L210.87 139.43V139.93C210.87 141.09 210.85 142.24 210.79 143.38V143.42C210.75 144.56 210.67 145.69 210.58 146.83C210.5 147.97 210.39 149.1 210.23 150.22C210.11 151.26 209.96 152.3 209.81 153.34C209.77 153.51 209.73 153.71 209.71 153.9C209.56 154.79 209.4 155.65 209.23 156.52C209.04 157.48 208.83 158.46 208.58 159.43C208.46 159.93 208.35 160.41 208.23 160.89C207.54 163.59 206.71 166.24 205.75 168.84C205.52 169.48 205.29 170.11 205.02 170.75C204.52 172.02 204 173.27 203.42 174.52C203.19 175.06 202.94 175.6 202.69 176.14C202.23 177.06 201.77 177.99 201.28 178.89C200.86 179.76 200.37 180.6 199.89 181.43C199.83 181.55 199.77 181.66 199.7 181.78C199.24 182.61 198.74 183.42 198.24 184.23C197.66 185.15 197.08 186.06 196.49 186.95C196.49 186.95 196.47 186.95 196.47 186.97C195.87 187.86 195.24 188.74 194.6 189.61C192.73 192.19 190.71 194.64 188.55 196.97L153.98 159.69V155.09L150.4 155.82V155.79ZM148.16 188.55V199.47H130.41V188.71H136.03V193.29H142.75V186.94L130.41 181.99V165.97L148.16 161.93V172.69H142.65L142.55 168.84L136.02 170.13V177.49L152.77 184.63L148.15 188.56L148.16 188.55ZM104.07 181.04L109.21 176.15L108.94 161.92L126.75 165.75V199.47H121.07V188.22L114.46 185.33V199.46H108.93V182.44L104.06 181.03L104.07 181.04ZM105.84 222.42V228.52H100.79L100.79 236.17C101.06 236.25 101.35 236.32 101.62 236.38L106.15 236.38L105.96 237.4H105.94L104.9 242.71H91.82V209.74H104.53L106.15 216.27H100.8V222.41H105.85L105.84 222.42ZM42.62 139.92V139.42L104.59 154.07L105.38 155.48L102.8 155.06V156.1L71.51 189.88H71.49L64.94 196.95C62.88 194.72 60.93 192.37 59.11 189.9C59.03 189.8 58.96 189.69 58.9 189.59C58.32 188.84 57.78 188.07 57.24 187.28C57.16 187.16 57.09 187.05 57.01 186.93C56.49 186.16 55.97 185.35 55.47 184.56C55.43 184.52 55.41 184.48 55.39 184.44C54.95 183.75 54.52 183.03 54.12 182.32C53.58 181.43 53.08 180.53 52.6 179.6C52.33 179.14 52.08 178.66 51.85 178.17C50.6 175.76 49.46 173.26 48.48 170.72C48.23 170.12 48 169.51 47.77 168.89C47.23 167.45 46.73 165.96 46.29 164.46C46.14 164 46 163.54 45.87 163.05C45.54 161.91 45.23 160.78 44.98 159.62C44.83 159 44.67 158.39 44.56 157.77C44.44 157.29 44.35 156.81 44.25 156.33C44.08 155.5 43.92 154.65 43.79 153.81C43.77 153.71 43.75 153.6 43.73 153.5C43.58 152.56 43.44 151.59 43.31 150.61C43.29 150.46 43.27 150.32 43.27 150.17C43.14 149.23 43.04 148.28 42.98 147.34C42.92 147.01 42.9 146.69 42.88 146.38C42.8 145.42 42.75 144.45 42.71 143.47V143.34C42.65 142.2 42.63 141.07 42.63 139.91L42.62 139.92ZM87.43 110.48L114.7 156.97L110.52 156.32L110.54 156.3L67.67 80.1C69.31 78.48 71 76.94 72.77 75.46C73.44 74.88 74.14 74.32 74.83 73.78C74.98 73.66 75.12 73.55 75.25 73.45C76.08 72.81 76.91 72.18 77.75 71.58C78.58 70.98 79.43 70.39 80.29 69.83C80.42 69.73 80.56 69.64 80.71 69.54C81.5 69.02 82.33 68.5 83.14 68C83.2 67.98 83.24 67.94 83.27 67.92C84.23 67.34 85.18 66.78 86.16 66.26C87.12 65.72 88.1 65.2 89.11 64.7L98.82 81.34L87.23 106.72C86.67 107.93 86.75 109.34 87.42 110.48H87.43ZM104.28 153.54L42.93 132.76C42.93 132.7 42.95 132.64 42.95 132.59C43.01 131.94 43.07 131.28 43.14 130.63C43.29 129.34 43.47 128.05 43.66 126.76C43.76 126.12 43.87 125.47 43.99 124.83C44.14 123.98 44.32 123.14 44.49 122.31V122.27C44.74 121.15 44.99 120.04 45.28 118.94C45.28 118.92 45.3 118.9 45.3 118.88C45.59 117.76 45.9 116.65 46.24 115.53C46.51 114.59 46.82 113.66 47.15 112.74C47.3 112.26 47.48 111.78 47.65 111.3C48.38 109.28 49.19 107.29 50.08 105.35C50.47 104.46 50.89 103.62 51.31 102.75C51.81 101.73 52.35 100.71 52.89 99.7299C53.43 98.7299 54.01 97.7499 54.58 96.7599C55.12 95.8499 55.68 94.9699 56.26 94.0799C56.36 93.9499 56.45 93.7899 56.55 93.6399C57.13 92.7699 57.72 91.9299 58.32 91.0799C59.63 89.2499 61.02 87.4599 62.5 85.7299C63.23 84.8599 63.96 84.0199 64.73 83.1899L104.28 153.56V153.54ZM77.11 189.86L102.8 162.13V173.9L93.83 182.8L102.8 186.73V203.31H71.49C70.99 202.89 70.51 202.44 70.01 202C69.68 201.71 69.37 201.4 69.05 201.09C68.63 200.7 68.22 200.3 67.82 199.9L77.12 189.87L77.11 189.86ZM110.94 209.75H128.43L130.64 212.12V228.14L128.58 229.72L129.66 232.8L130.97 236.52H130.99L132.01 239.45L133.17 242.72H124.29L123.12 239.5L122.02 236.52L119.92 230.76V242.72H110.95V209.75H110.94ZM142.94 156.29L144.25 157.02L138.03 158.27C138.11 158.19 138.15 158.1 138.2 158.02L166.08 110.47C166.75 109.33 166.83 107.93 166.27 106.71L154.68 81.33L164.39 64.71C164.58 64.81 164.79 64.92 164.99 65.02C165.78 65.42 166.57 65.83 167.34 66.27C168.3 66.79 169.27 67.35 170.21 67.93L170.33 67.99C171.24 68.55 172.12 69.13 173.01 69.7C173.93 70.3 174.84 70.93 175.73 71.57C176.73 72.28 177.69 73.01 178.66 73.77C179.35 74.31 180.05 74.87 180.72 75.45C182.47 76.91 184.17 78.45 185.8 80.07L142.95 156.29H142.94ZM47.43 240.1L44.68 242.66H24.65L21.97 239.66L21.97 207.44H17.35L22.74 199.04H47.33L47.33 207.99L39.55 210.99V206.91H33.5V234.77H38.04V226.69L47.42 220.84V240.09L47.43 240.1ZM62.45 242.73H53.77V209.74H62.45V242.73ZM58.79 203.3C58.15 202.65 57.56 201.99 56.96 201.3C56.31 200.57 55.67 199.8 55.03 199.03C54.95 198.95 54.88 198.86 54.82 198.76C54.36 198.22 53.91 197.66 53.49 197.1C52.89 196.37 52.32 195.62 51.78 194.85C51.07 193.91 50.39 192.94 49.74 191.96C49.28 191.29 48.83 190.61 48.39 189.92C47.72 188.88 47.06 187.8 46.45 186.72C45.99 185.95 45.54 185.16 45.12 184.37C44.73 183.66 44.35 182.94 43.98 182.23C43.48 181.25 42.98 180.25 42.52 179.23C42.5 179.19 42.48 179.15 42.46 179.11C42 178.11 41.55 177.11 41.11 176.09C40.61 174.92 40.15 173.74 39.7 172.53C39.33 171.61 39.01 170.66 38.68 169.72C37.97 167.58 37.31 165.39 36.74 163.15C36.55 162.4 36.35 161.67 36.2 160.92C35.29 157.07 34.66 153.12 34.27 149.1C34.19 148.43 34.14 147.75 34.08 147.08C34.04 146.46 33.98 145.83 33.96 145.19C33.92 144.77 33.9 144.36 33.9 143.94C33.82 142.61 33.8 141.28 33.8 139.93C33.8 138.58 33.84 137.1 33.9 135.71C33.94 135.06 33.96 134.4 34.02 133.75C34.19 131.05 34.48 128.4 34.89 125.78C34.99 125.01 35.14 124.24 35.26 123.49C35.57 121.8 35.91 120.1 36.32 118.44C36.44 117.92 36.57 117.38 36.71 116.86C36.98 115.82 37.25 114.78 37.56 113.76C37.83 112.87 38.1 111.97 38.39 111.1C38.72 110.1 39.06 109.1 39.43 108.12C39.78 107.12 40.16 106.14 40.57 105.15C40.86 104.4 41.19 103.63 41.51 102.88C42.11 101.51 42.72 100.16 43.4 98.84C43.77 98.09 44.15 97.34 44.54 96.61C45.02 95.69 45.52 94.78 46.04 93.88C46.56 92.97 47.1 92.07 47.64 91.18C48.18 90.29 48.74 89.43 49.33 88.56C49.79 87.85 50.27 87.13 50.76 86.44C51.47 85.44 52.2 84.44 52.96 83.47C53.27 83.08 53.58 82.68 53.88 82.3C54.25 81.8 54.65 81.32 55.05 80.84C56.32 79.3 57.63 77.82 58.98 76.37C59.35 76 59.69 75.62 60.06 75.25C60.43 74.86 60.77 74.5 61.16 74.13C61.53 73.74 61.89 73.4 62.26 73.05C62.63 72.68 63.01 72.34 63.4 71.97C64.09 71.33 64.79 70.7 65.5 70.06C66.21 69.44 66.93 68.83 67.66 68.23C68.6 67.44 69.55 66.69 70.53 65.96C71.34 65.34 72.15 64.75 72.98 64.15C73.42 63.84 73.87 63.51 74.33 63.23C74.75 62.94 75.2 62.63 75.62 62.36C76.29 61.92 76.99 61.45 77.66 61.03C77.97 60.84 78.28 60.64 78.58 60.45C79.37 59.99 80.14 59.53 80.93 59.08C81.84 58.56 82.76 58.06 83.68 57.58C84.01 57.41 84.35 57.23 84.68 57.06L84.81 57.29L87.33 61.6C61.06 74.85 42.36 100.92 39.5 131.6C39.27 133.89 39.13 136.22 39.11 138.59C39.09 139.03 39.09 139.48 39.09 139.92C39.09 158.5 44.87 175.74 54.73 189.91C58.08 194.74 61.93 199.23 66.17 203.29H58.81L58.79 203.3ZM67.09 242.72V209.75L73.71 209.77H79.89L84.84 209.79L87.17 212.12V222.92L86.4 223.67L85.09 224.98L87.19 227.35V240.27L85.09 242.72H67.08H67.09ZM95.77 254.56L95.1 255.37L95.77 255.97L95.77 260.34L94.46 262.15H84.1L84.1 251.58L82.5 248.44H94.46L95.77 249.9V254.56ZM108.92 262.15L107.98 259.53H103.32L102.53 262.15H98.99L101.86 251.31L100.18 248.44H108.54V249.56L112.6 262.15H108.92ZM126.73 253.19H123.48V251.59H118.55V252.98L126.73 255.68V260.84L125.52 262.15H116.12L114.79 260.51V257.08H118.58V259.35H123.55V257.42L115.85 255.61L114.77 254.88V251.3L113.33 248.43H125.79L126.73 249.66V253.19ZM139.17 262.15L134.47 256.32L134.47 262.15H130.31V251.52L128.73 248.44H134.26L134.26 253.83H134.68L138.96 248.44H143.29V249.08L138.28 254.95V255.49L143.67 262.15H139.16L139.17 262.15ZM157.48 251.69L150.37 251.69V253.75H155.47V256.81H150.37V259.33L157.48 259.33V262.14H146.52V251.2L144.83 248.43H157.48V251.69ZM172.29 251.69H167.67V262.15H164.03V251.69H161.55L159.97 248.44H172.29L172.29 251.69ZM174.41 242.73H165.73V209.74H174.41V242.73ZM154.46 203.3V190.71L155.52 189.69H155.54L163.22 182.31L153.98 177.96V165.67L185.67 199.89C185.27 200.29 184.86 200.7 184.44 201.08C184.11 201.39 183.8 201.7 183.48 201.99C182.98 202.43 182.5 202.88 182 203.3H154.46ZM191.76 242.72H179.01V209.75H187.69V236.38H193.27L191.75 242.72H191.76ZM194.67 203.3H187.33C191.66 199.14 195.59 194.54 199 189.57H199.02C208.73 175.45 214.41 158.35 214.41 139.93C214.41 139.49 214.41 139.04 214.39 138.6C214.37 136.23 214.24 133.9 214.02 131.61C211.13 100.95 192.45 74.88 166.2 61.63L168.72 57.3L168.84 57.09C169.15 57.24 169.46 57.4 169.75 57.57H169.77C170.69 58.05 171.62 58.55 172.52 59.07C173.33 59.53 174.12 59.99 174.91 60.46C175.03 60.54 175.12 60.59 175.24 60.67C176.13 61.21 176.99 61.77 177.86 62.35C178.48 62.75 179.07 63.16 179.69 63.58C180.06 63.83 180.42 64.08 180.77 64.35C181.5 64.87 182.21 65.41 182.95 65.95C183.68 66.49 184.41 67.07 185.11 67.66C187.69 69.7 190.14 71.9 192.45 74.23C193.14 74.92 193.82 75.64 194.49 76.35C195.22 77.1 195.92 77.87 196.59 78.66C196.9 79.01 197.21 79.35 197.51 79.72C197.84 80.09 198.15 80.45 198.45 80.84C198.91 81.4 199.39 82 199.84 82.57C200.76 83.74 201.67 84.94 202.52 86.15C203.1 86.96 203.66 87.77 204.21 88.6C204.75 89.43 205.29 90.26 205.81 91.1C205.94 91.31 206.08 91.54 206.21 91.75C206.69 92.54 207.15 93.33 207.62 94.14C208.08 94.95 208.53 95.76 208.95 96.59C209.2 97.05 209.43 97.51 209.68 98C210.18 98.98 210.66 99.96 211.11 100.95C211.32 101.39 211.51 101.82 211.71 102.26C212.56 104.15 213.33 106.05 214.04 108C214.31 108.71 214.56 109.43 214.79 110.16C215.18 111.28 215.54 112.41 215.87 113.57C216.1 114.32 216.31 115.07 216.52 115.84C218.06 121.62 219.06 127.61 219.47 133.77C219.53 134.42 219.55 135.08 219.59 135.73C219.65 137.12 219.69 138.54 219.69 139.95C219.69 141.28 219.67 142.59 219.59 143.9C219.57 144.38 219.57 144.84 219.53 145.31C219.49 146.02 219.45 146.74 219.38 147.43C219.34 148.1 219.28 148.78 219.21 149.45C219.11 150.43 219 151.41 218.86 152.38C218.78 152.94 218.71 153.48 218.63 154.04C218.63 154.06 218.63 154.08 218.61 154.12C218.53 154.74 218.42 155.37 218.3 156.01C217.8 158.96 217.14 161.84 216.36 164.68C216.23 165.18 216.07 165.66 215.94 166.16C215.21 168.68 214.38 171.15 213.42 173.55C213.19 174.2 212.94 174.84 212.67 175.46C212.27 176.44 211.86 177.4 211.42 178.37C210.98 179.35 210.51 180.31 210.03 181.26C209.45 182.47 208.82 183.65 208.16 184.82C207.77 185.51 207.39 186.21 206.99 186.9C206.45 187.82 205.91 188.73 205.33 189.62C204.85 190.41 204.33 191.18 203.83 191.93C202.58 193.78 201.25 195.59 199.86 197.34C199.28 198.09 198.67 198.84 198.05 199.57C197.43 200.32 196.82 201.03 196.16 201.75C195.68 202.29 195.2 202.83 194.7 203.35L194.67 203.3ZM210.65 242.72H197.9V209.75L206.58 209.75V236.38H212.16L210.64 242.72L210.65 242.72ZM235.88 207.19H226.29V216.01H235.19L230.2 224H226.27V234.88H235.88V242.72H218.07L216.97 241.39V207.34H211.44L216.7 199.1H235.88V207.19Z" fill="#1E1161"/>
<path d="M175.87 18.1201L175.87 36.9302L168.56 49.4702L167.07 52.01L165.15 55.29L164.59 56.27H164.61L162.51 59.8501L153.15 75.8901L139.11 82.8201L144.58 70.3301V47.4301L146.83 45.3101L149.43 42.8901L175.87 18.1201Z" fill="white"/>
<path d="M114.35 82.8201L100.41 75.9301L92.82 62.9701L90.99 59.8301L88.91 56.2701L88.33 55.2901L86.43 52.0101L84.92 49.45L77.59 36.8802V18.1202L104.03 42.8702L106.63 45.3101L108.9 47.4301V70.3301L114.35 82.8201Z" fill="white"/>
<path d="M121.07 170.31V181.04L114.85 178.01V169.33L121.07 170.31Z" fill="#1E1161"/>
<path d="M76.16 228.93V236.38H78.95V228.93H76.16Z" fill="#1E1161"/>
<path d="M101.62 236.38H100.79V236.17C101.06 236.25 101.35 236.32 101.62 236.38Z" fill="#1E1161"/>
<path d="M122.7 216.28H119.91V223.94H122.7V216.28Z" fill="#1E1161"/>
<path d="M159.22 217.53C159.1 217.59 158.97 217.63 158.85 217.68V217.66C158.97 217.62 159.1 217.58 159.22 217.53Z" fill="#1E1161"/>
<path d="M193.28 236.38L191.76 242.72H179.01V209.75L187.7 209.75V236.38H193.28Z" fill="white"/>
<path d="M212.17 236.38L210.65 242.72H197.9V209.75H206.59V236.38H212.17Z" fill="#1E1161"/>
<path d="M226.29 207.19V216.01H235.19L230.2 224H226.27V234.88H235.88V242.72H218.07L216.97 241.39V207.34H211.44L216.7 199.1H235.88V207.19H226.29Z" fill="#1E1161"/>
<path d="M108.94 161.91L109.21 176.14L104.07 181.03L108.94 182.44V199.46H114.47V185.33L121.08 188.22V199.47H126.76V165.75L108.95 161.92L108.94 161.91ZM121.07 181.04L114.85 178.02V169.34L121.07 170.32V181.05L121.07 181.04Z" fill="white"/>
<path d="M152.79 184.62L148.16 188.55L148.16 199.46H130.41V188.7H136.03V193.28H142.75V186.93L130.41 181.98V165.96L148.16 161.91V172.68H142.66L142.56 168.83L136.03 170.12V177.47L152.79 184.62Z" fill="white"/>
<path d="M47.43 220.85V240.1L44.68 242.66H24.65L21.97 239.65V207.44H17.35L22.74 199.04H47.33V208L39.55 211V206.92H33.51V234.78H40.05L40.13 226.65L37.09 226.7L39.47 220.84L47.43 220.85Z" fill="white"/>
<path d="M62.45 209.75H53.77V242.74H62.45V209.75Z" fill="white"/>
<path d="M85.1 224.98L86.41 223.67L87.18 222.92V212.12L84.85 209.79L79.9 209.77H73.72L67.1 209.75V242.72H85.11L87.21 240.27V227.35L85.11 224.98H85.1ZM78.95 236.38H76.16V228.93H78.95V236.38ZM76.16 216.28H78.95V222.06H76.16V216.28Z" fill="white"/>
<path d="M78.95 216.28H76.16V222.06H78.95V216.28Z" fill="#1E1161"/>
<path d="M132.01 239.44L130.99 236.51H130.97L129.66 232.79L128.58 229.71L130.64 228.13V212.11L128.43 209.74H110.94V242.71H119.91V230.75L122.01 236.51L123.11 239.49L124.28 242.71H133.16L132 239.44H132.01ZM119.91 223.94V216.28H122.7V223.94H119.91Z" fill="white"/>
<path d="M147.97 221.32L145.18 209.75H136.03L139.31 223.11V223.13L140.15 226.58H140.17L141.42 231.7L142.31 235.38H142.33L143.02 238.23L144.12 242.72H152.94L154.61 235.63L155.4 232.3L156.41 228.02V228L158.85 217.68V217.66L160.72 209.75H151.9L149.16 221.01L148.53 223.63L147.97 221.34V221.32Z" fill="white"/>
<path d="M174.41 209.75H165.73V242.74H174.41V209.75Z" fill="white"/>
<path d="M212.17 236.38L210.65 242.72H197.9V209.75H206.59V236.38H212.17Z" fill="white"/>
<path d="M226.29 207.19V216.01H235.19L230.2 224H226.27V234.88H235.88V242.72H218.07L216.97 241.39V207.34H211.44L216.7 199.1H235.88V207.19H226.29Z" fill="white"/>
<path d="M95.77 249.9L94.46 248.44H82.5L84.1 251.58L84.1 262.15H94.46L95.77 260.34L95.77 255.97L95.1 255.37L95.77 254.56V249.9ZM87.93 251.73H91.9V253.71H87.93V251.73ZM92.24 259.05H87.93V257.05H92.24V259.05Z" fill="white"/>
<path d="M108.53 249.55V248.43H100.17L101.85 251.3L98.98 262.14H102.52L103.31 259.52H107.97L108.91 262.14H112.59L108.53 249.55ZM104.39 256.27L105.53 252.23L106.84 256.27H104.39Z" fill="white"/>
<path d="M123.48 253.19V251.59H118.55V252.98L126.73 255.68V260.84L125.52 262.15H116.12L114.79 260.51V257.08H118.58V259.35H123.55V257.43L115.85 255.62L114.77 254.89V251.3L113.33 248.43H125.79L126.73 249.67V253.19H123.48Z" fill="white"/>
<path d="M143.68 262.15H139.17L134.47 256.31V262.15H130.31V251.52L128.73 248.43H134.26V253.83H134.68L138.96 248.43H143.29V249.07L138.28 254.94V255.48L143.68 262.15Z" fill="white"/>
<path d="M150.38 251.69V253.75H155.48V256.81H150.38V259.33H157.48V262.15H146.53V251.21L144.83 248.43H157.48V251.69H150.38Z" fill="white"/>
<path d="M172.29 248.43V251.69H167.67V262.15H164.03V251.69H161.55L159.97 248.43H172.29Z" fill="white"/>
</svg>
