<svg width="75" height="75" viewBox="0 0 75 75" fill="none" xmlns="http://www.w3.org/2000/svg">
<circle cx="37.5" cy="37.5" r="37.5" fill="#1E1261"/>
<g clip-path="url(#clip0_2982_7797)">
<path d="M53.5001 46.4489C53.3658 46.9584 53.1981 47.4444 52.8337 47.8502C52.3064 48.44 51.6449 48.7561 50.8491 48.8033C50.7772 48.8033 50.7053 48.8033 50.6334 48.8033C42.0429 48.8033 33.4524 48.8033 24.8668 48.8033C23.6971 48.8033 22.8054 48.3031 22.2925 47.2651C22.1199 46.916 22.0097 46.496 22.0097 46.1044C22.0001 40.6407 22.0001 35.1723 22.0049 29.7038C22.0097 28.1751 23.2512 27.0144 24.8428 27.0097C30.7871 27.0097 36.7314 27.0097 42.6757 27.0097C45.2979 27.0097 47.9249 27.0333 50.5471 27.0003C51.9613 26.9814 53.1933 27.8873 53.4521 29.2367C53.4569 29.265 53.4809 29.2886 53.5001 29.3122V46.4489ZM25.2023 28.8404C25.255 28.9065 25.2694 28.93 25.2934 28.9536C28.7833 32.3696 32.2636 35.7904 35.763 39.1969C36.9375 40.3387 38.5914 40.3199 39.7706 39.1686C43.227 35.7951 46.6785 32.4121 50.13 29.0291C50.1828 28.9772 50.2211 28.9159 50.2834 28.8451H25.2023V28.8404ZM25.3317 46.9773H50.1013C47.5749 44.4389 44.9767 41.8297 42.3114 39.1497C41.7936 39.6923 41.343 40.2491 40.8061 40.7115C39.4638 41.8675 37.9107 42.1317 36.2232 41.5985C35.509 41.372 34.9097 40.9521 34.3824 40.4284C33.975 40.0226 33.5675 39.6121 33.1169 39.1639C30.4899 41.8014 27.9012 44.4059 25.3365 46.9773H25.3317ZM23.8601 45.6232C23.8888 45.642 23.9176 45.6562 23.9463 45.6751C26.5398 43.0706 29.138 40.4661 31.6308 37.9655C29.0709 35.4035 26.4679 32.799 23.8601 30.1851V45.6232ZM43.8693 37.8617C46.4244 40.4284 49.0179 43.0329 51.6305 45.6562V30.0907C48.9699 32.7518 46.3717 35.3563 43.8693 37.8617Z" fill="#EEFBFD"/>
</g>
<defs>
<clipPath id="clip0_2982_7797">
<rect width="31.5" height="21.8077" fill="white" transform="translate(22 27)"/>
</clipPath>
</defs>
</svg>
