<svg width="137" height="137" viewBox="0 0 137 137" fill="none" xmlns="http://www.w3.org/2000/svg">
<circle cx="68.5" cy="68.5" r="66" fill="white" stroke="#048DA9" stroke-width="5"/>
<path d="M56.1878 98.303C55.8754 98.4005 55.6647 98.708 55.6647 99.0531V106.607C55.6647 108.047 54.5313 109.217 53.1364 109.217H38.3951C37.0002 109.217 35.8668 108.047 35.8668 106.607V99.0531C35.8668 98.708 35.6634 98.4005 35.3437 98.303C33.7163 97.7629 29.0229 95.2051 31.929 83.9387C33.0842 79.5582 35.8814 77.0229 38.6567 75.5527C40.4512 74.6076 42.3983 74.045 44.3672 73.8725C40.8799 73.1974 38.2426 70.0396 38.2426 66.2441C38.2426 61.9536 41.6137 58.4731 45.7621 58.4731C49.9106 58.4731 53.289 61.9536 53.289 66.2441C53.289 70.0396 50.6517 73.1974 47.1643 73.8725C49.1332 74.045 51.0803 74.6076 52.8821 75.5602C55.6574 77.0229 58.4473 79.5582 59.6025 83.9387C62.5086 95.2051 57.8152 97.7629 56.1878 98.303Z" fill="#D4EBF0"/>
<path d="M82.9316 84.3513C82.9316 84.3513 82.6628 89.2419 78.2818 90.8321C78.0566 90.9146 78.0638 91.4021 78.0638 91.4021V106.764C78.0638 108.122 77.0031 109.217 75.6881 109.217H60.8524C59.5374 109.217 58.4767 108.122 58.4767 106.764V101.761C58.4767 101.198 58.7382 100.673 59.1741 100.321C60.4237 99.3081 62.9303 96.4202 62.9303 89.5644C62.9303 78.9281 56.268 73.535 54.3645 72.2148C54.0521 71.9973 53.9068 71.6072 53.9867 71.2322C54.5534 68.6594 57.2634 59.3882 66.9916 58.5406C63.3299 57.8055 60.6272 54.3101 60.9614 50.2446C61.2738 46.3967 64.4269 43.3063 68.1613 43.1638C72.4478 42.9987 75.9787 46.5317 75.9787 50.9197C75.9787 54.6852 73.385 57.828 69.9413 58.5406C75.2304 59.0132 78.398 61.9761 80.2798 64.9839C82.0307 67.7893 82.8735 71.0972 82.888 74.4351L82.9316 84.3438V84.3513Z" fill="#D4EBF0"/>
<path d="M102.221 83.0763C101.821 83.2188 101.908 83.7214 101.908 83.7214V106.727C101.908 108.099 100.826 109.217 99.4964 109.217H84.7914C83.4619 109.217 82.3794 108.099 82.3794 106.727V94.3277C82.3794 93.9451 82.5392 93.5776 82.8153 93.3225C83.9196 92.3174 86.7603 88.7995 86.7603 79.2283C86.7603 63.6264 80.8827 58.3608 78.6014 56.9056C78.0492 56.5531 77.7877 55.863 77.9475 55.2179C78.7104 52.1275 81.5511 44.1466 90.8071 43.3815C87.1309 42.6389 84.4136 39.1285 84.7696 35.0555C85.1038 31.2075 88.2715 28.1321 92.0059 28.0046C96.2778 27.8546 99.7797 31.395 99.7797 35.768C99.7797 39.5335 97.1787 42.6764 93.7277 43.3815C103.071 44.1616 105.694 52.3226 106.348 55.3229C106.478 55.9305 106.544 56.5531 106.544 57.1756V76.258C106.544 76.258 106.9 81.0135 102.214 83.0688L102.221 83.0763Z" fill="#048DA9"/>
</svg>
