<svg width="41" height="41" viewBox="0 0 41 41" fill="none" xmlns="http://www.w3.org/2000/svg">
<path d="M32.4587 23.9167C35.0041 21.4225 37.5837 18.4329 37.5837 14.5208C37.5837 12.0289 36.5937 9.63904 34.8317 7.87698C33.0696 6.11492 30.6798 5.125 28.1878 5.125C25.1812 5.125 23.0628 5.97917 20.5003 8.54167C17.9378 5.97917 15.8195 5.125 12.8128 5.125C10.3209 5.125 7.93103 6.11492 6.16897 7.87698C4.40691 9.63904 3.41699 12.0289 3.41699 14.5208C3.41699 18.45 5.97949 21.4396 8.54199 23.9167L20.5003 35.875L32.4587 23.9167Z" stroke="white" stroke-width="3.41667" stroke-linecap="round" stroke-linejoin="round"/>
<path d="M20.4997 8.54163L15.443 13.5983C15.0959 13.9429 14.8204 14.3527 14.6324 14.8043C14.4444 15.2558 14.3477 15.74 14.3477 16.2291C14.3477 16.7182 14.4444 17.2025 14.6324 17.654C14.8204 18.1055 15.0959 18.5154 15.443 18.86C16.8438 20.2608 19.0818 20.312 20.568 18.9795L24.1043 15.7337C24.9906 14.9294 26.1447 14.4839 27.3415 14.4839C28.5384 14.4839 29.6925 14.9294 30.5788 15.7337L35.6355 20.2779" stroke="white" stroke-width="3.41667" stroke-linecap="round" stroke-linejoin="round"/>
<path d="M30.7497 25.625L27.333 22.2084" stroke="white" stroke-width="3.41667" stroke-linecap="round" stroke-linejoin="round"/>
<path d="M25.6247 30.75L22.208 27.3334" stroke="white" stroke-width="3.41667" stroke-linecap="round" stroke-linejoin="round"/>
</svg>
